<?xml version="1.0" encoding="utf-8"?>
<!-- Generator: Adobe Illustrator 15.0.0, SVG Export Plug-In . SVG Version: 6.00 Build 0)  -->
<!DOCTYPE svg PUBLIC "-//W3C//DTD SVG 1.1//EN" "http://www.w3.org/Graphics/SVG/1.1/DTD/svg11.dtd">
<svg version="1.1" id="Layer_1" xmlns="http://www.w3.org/2000/svg" xmlns:xlink="http://www.w3.org/1999/xlink" x="0px" y="0px"
	 width="500px" height="260px" viewBox="0 0 500 260" enable-background="new 0 0 500 260" xml:space="preserve">
<g id="Layer_2" display="none">
	<rect x="-307" y="-243" display="inline" fill="#004DDA" width="1114" height="746"/>
</g>
<rect x="-30.561" y="-9.5" fill="#CCCCCC" width="561.79" height="278.667"/>
<g>
	<path fill="#FFFFFF" d="M147.753,135.959v-13.18h2.66v13.18H147.753z"/>
	<path fill="#FFFFFF" d="M152.914,135.959v-13.18h3.982l2.393,8.992l2.363-8.992h3.99v13.18h-2.473v-10.375l-2.614,10.375h-2.561
		l-2.61-10.375v10.375H152.914z"/>
	<path fill="#FFFFFF" d="M180.17,135.959h-2.895l-1.15-2.994h-5.268l-1.089,2.994h-2.819l5.13-13.18h2.813L180.17,135.959z
		 M175.27,130.746l-1.818-4.893l-1.78,4.893H175.27z"/>
	<path fill="#FFFFFF" d="M187.709,131.114v-2.222h5.738v5.249c-0.558,0.539-1.366,1.014-2.423,1.427
		c-1.058,0.411-2.129,0.613-3.214,0.613c-1.38,0-2.581-0.287-3.605-0.865c-1.025-0.577-1.796-1.405-2.312-2.482
		c-0.516-1.073-0.771-2.246-0.771-3.508c0-1.374,0.284-2.593,0.86-3.661c0.575-1.065,1.417-1.883,2.526-2.453
		c0.846-0.438,1.898-0.657,3.158-0.657c1.635,0,2.913,0.343,3.831,1.03c0.922,0.684,1.514,1.632,1.778,2.845l-2.644,0.494
		c-0.186-0.648-0.533-1.159-1.047-1.531c-0.512-0.376-1.153-0.564-1.917-0.564c-1.164,0-2.088,0.37-2.775,1.106
		c-0.685,0.738-1.027,1.831-1.027,3.282c0,1.564,0.347,2.736,1.042,3.518c0.695,0.783,1.608,1.176,2.733,1.176
		c0.556,0,1.115-0.111,1.677-0.33c0.561-0.218,1.042-0.482,1.441-0.797v-1.67H187.709z"/>
	<path fill="#FFFFFF" d="M195.9,135.959v-13.18h9.771v2.229h-7.111v2.922h6.618v2.222h-6.618v3.586h7.362v2.221H195.9z"/>
	<path fill="#FFFFFF" d="M213.295,135.959v-13.18h4.269c1.618,0,2.674,0.068,3.164,0.198c0.756,0.199,1.388,0.627,1.897,1.291
		c0.51,0.662,0.767,1.518,0.767,2.567c0,0.81-0.147,1.489-0.442,2.041c-0.295,0.551-0.667,0.983-1.121,1.298
		c-0.453,0.316-0.91,0.523-1.378,0.623c-0.635,0.13-1.555,0.192-2.759,0.192h-1.736v4.97H213.295z M215.955,125.008v3.74h1.456
		c1.049,0,1.75-0.068,2.104-0.205c0.354-0.138,0.633-0.354,0.833-0.648c0.201-0.294,0.302-0.635,0.302-1.025
		c0-0.48-0.144-0.875-0.424-1.186c-0.283-0.313-0.637-0.506-1.071-0.585c-0.314-0.061-0.954-0.09-1.913-0.09H215.955z"/>
	<path fill="#FFFFFF" d="M225.646,135.959v-13.071h2.662v10.851h6.616v2.221H225.646z"/>
	<path fill="#FFFFFF" d="M248.703,135.959h-2.895l-1.149-2.994h-5.268l-1.089,2.994h-2.819l5.131-13.18h2.813L248.703,135.959z
		 M243.806,130.746l-1.815-4.893l-1.78,4.893H243.806z"/>
	<path fill="#FFFFFF" d="M258.548,131.114l2.579,0.817c-0.395,1.439-1.052,2.508-1.975,3.206c-0.916,0.696-2.083,1.044-3.499,1.044
		c-1.751,0-3.189-0.595-4.314-1.791c-1.13-1.195-1.689-2.828-1.689-4.903c0-2.194,0.565-3.899,1.698-5.111
		c1.13-1.212,2.621-1.82,4.466-1.82c1.614,0,2.922,0.477,3.929,1.429c0.6,0.564,1.05,1.373,1.348,2.428l-2.631,0.63
		c-0.156-0.684-0.482-1.224-0.976-1.619c-0.494-0.396-1.098-0.594-1.803-0.594c-0.979,0-1.771,0.352-2.379,1.051
		c-0.609,0.704-0.914,1.837-0.914,3.408c0,1.668,0.301,2.853,0.9,3.559c0.6,0.71,1.379,1.064,2.337,1.064
		c0.708,0,1.315-0.228,1.824-0.677C257.959,132.784,258.325,132.08,258.548,131.114z"/>
	<path fill="#FFFFFF" d="M263.41,135.959v-13.18h9.771v2.229h-7.111v2.922h6.618v2.222h-6.618v3.586h7.362v2.221H263.41z"/>
	<path fill="#FFFFFF" d="M275.699,135.959v-13.18h2.66v5.187h5.215v-5.187h2.66v13.18h-2.66v-5.764h-5.215v5.764H275.699z"/>
	<path fill="#FFFFFF" d="M288.444,129.451c0-1.344,0.202-2.469,0.604-3.38c0.299-0.672,0.709-1.275,1.228-1.807
		c0.518-0.535,1.086-0.93,1.705-1.188c0.82-0.347,1.766-0.521,2.839-0.521c1.941,0,3.494,0.602,4.661,1.807
		c1.167,1.206,1.748,2.878,1.748,5.027c0,2.125-0.577,3.791-1.734,4.995c-1.159,1.199-2.704,1.798-4.64,1.798
		c-1.959,0-3.517-0.595-4.674-1.791C289.025,133.195,288.444,131.547,288.444,129.451z M291.188,129.361
		c0,1.491,0.344,2.622,1.035,3.394c0.686,0.768,1.561,1.156,2.623,1.156s1.931-0.385,2.612-1.149c0.678-0.763,1.02-1.909,1.02-3.436
		c0-1.513-0.33-2.638-0.994-3.383c-0.66-0.74-1.542-1.114-2.638-1.114c-1.099,0-1.98,0.375-2.651,1.128
		C291.522,126.71,291.188,127.843,291.188,129.361z"/>
	<path fill="#FFFFFF" d="M303.379,135.959v-13.071h2.66v10.851h6.615v2.221H303.379z"/>
	<path fill="#FFFFFF" d="M314.542,122.779h4.863c1.098,0,1.932,0.084,2.507,0.253c0.775,0.226,1.438,0.631,1.987,1.213
		c0.554,0.581,0.974,1.291,1.261,2.133c0.289,0.842,0.43,1.881,0.43,3.116c0,1.085-0.134,2.02-0.404,2.805
		c-0.329,0.96-0.8,1.736-1.411,2.328c-0.461,0.45-1.086,0.8-1.869,1.052c-0.586,0.185-1.372,0.279-2.355,0.279h-5.008V122.779z
		 M317.202,125.008v8.73h1.987c0.744,0,1.277-0.041,1.608-0.124c0.434-0.109,0.79-0.293,1.077-0.55
		c0.282-0.258,0.515-0.682,0.694-1.271c0.179-0.592,0.271-1.396,0.271-2.415c0-1.017-0.093-1.799-0.271-2.347
		c-0.18-0.545-0.43-0.971-0.754-1.276c-0.325-0.304-0.733-0.512-1.233-0.618c-0.37-0.085-1.1-0.128-2.184-0.128H317.202z"/>
	<path fill="#FFFFFF" d="M327.846,135.959v-13.18h9.772v2.229h-7.113v2.922h6.618v2.222h-6.618v3.586h7.365v2.221H327.846z"/>
	<path fill="#FFFFFF" d="M340.136,135.959v-13.18h5.599c1.41,0,2.433,0.12,3.071,0.356c0.639,0.237,1.147,0.657,1.532,1.263
		c0.383,0.605,0.574,1.297,0.574,2.076c0,0.99-0.287,1.805-0.872,2.451c-0.581,0.644-1.449,1.049-2.605,1.219
		c0.575,0.334,1.049,0.704,1.426,1.103c0.375,0.404,0.877,1.115,1.513,2.141l1.611,2.571H348.8l-1.923-2.869
		c-0.683-1.025-1.15-1.668-1.402-1.934c-0.25-0.268-0.518-0.45-0.802-0.553c-0.28-0.097-0.727-0.147-1.338-0.147h-0.539v5.502
		H340.136z M342.796,128.354h1.969c1.278,0,2.072-0.052,2.394-0.162c0.313-0.109,0.563-0.293,0.743-0.559
		c0.181-0.262,0.27-0.591,0.27-0.987c0-0.445-0.118-0.801-0.354-1.074c-0.236-0.276-0.569-0.447-1.004-0.518
		c-0.214-0.03-0.861-0.047-1.94-0.047h-2.076V128.354z"/>
</g>
</svg>
