<?xml version="1.0" encoding="utf-8"?>
<!-- Generator: Adobe Illustrator 15.0.0, SVG Export Plug-In . SVG Version: 6.00 Build 0)  -->
<!DOCTYPE svg PUBLIC "-//W3C//DTD SVG 1.1//EN" "http://www.w3.org/Graphics/SVG/1.1/DTD/svg11.dtd">
<svg version="1.1" id="Layer_1" xmlns="http://www.w3.org/2000/svg" xmlns:xlink="http://www.w3.org/1999/xlink" x="0px" y="0px"
	 width="359px" height="387px" viewBox="0 0 359 387" enable-background="new 0 0 359 387" xml:space="preserve">
<rect x="-18.981" y="-7" fill="#CCCCCC" width="396.451" height="399.5"/>
<g>
	<path fill="#FFFFFF" d="M26.496,202.609v-19.717h3.978v19.717H26.496z"/>
	<path fill="#FFFFFF" d="M34.215,202.609v-19.717h5.956l3.579,13.451l3.536-13.451h5.967v19.717h-3.698v-15.524l-3.911,15.524
		h-3.831l-3.904-15.524v15.524H34.215z"/>
	<path fill="#FFFFFF" d="M74.986,202.609h-4.331l-1.721-4.48h-7.881l-1.629,4.48h-4.218l7.674-19.717h4.209L74.986,202.609z
		 M67.655,194.807l-2.719-7.314l-2.662,7.314H67.655z"/>
	<path fill="#FFFFFF" d="M86.263,195.359v-3.322h8.583v7.849c-0.833,0.81-2.042,1.517-3.625,2.136
		c-1.582,0.616-3.182,0.918-4.807,0.918c-2.063,0-3.858-0.43-5.393-1.295c-1.534-0.863-2.687-2.103-3.458-3.712
		c-0.771-1.605-1.152-3.36-1.152-5.25c0-2.054,0.425-3.876,1.285-5.475c0.861-1.593,2.122-2.815,3.78-3.669
		c1.265-0.656,2.837-0.981,4.723-0.981c2.445,0,4.356,0.513,5.731,1.54c1.377,1.022,2.263,2.442,2.659,4.256l-3.956,0.738
		c-0.276-0.971-0.798-1.733-1.567-2.291c-0.765-0.563-1.723-0.843-2.868-0.843c-1.742,0-3.124,0.553-4.151,1.653
		c-1.025,1.106-1.537,2.741-1.537,4.91c0,2.34,0.519,4.094,1.557,5.262c1.04,1.173,2.408,1.76,4.09,1.76
		c0.831,0,1.667-0.168,2.507-0.496c0.839-0.323,1.558-0.721,2.156-1.187v-2.501H86.263z"/>
	<path fill="#FFFFFF" d="M98.517,202.609v-19.717h14.615v3.333h-10.638v4.37h9.899v3.327h-9.899v5.362h11.014v3.325H98.517z"/>
	<path fill="#FFFFFF" d="M124.536,202.609v-19.717h6.386c2.42,0,3.998,0.102,4.731,0.295c1.133,0.299,2.076,0.938,2.838,1.93
		c0.763,0.991,1.147,2.272,1.147,3.842c0,1.209-0.221,2.226-0.661,3.052c-0.442,0.826-0.998,1.472-1.676,1.942
		c-0.676,0.472-1.362,0.783-2.062,0.932c-0.95,0.193-2.326,0.287-4.128,0.287h-2.597v7.438H124.536z M128.514,186.226v5.596h2.178
		c1.568,0,2.618-0.104,3.147-0.308c0.53-0.207,0.948-0.53,1.246-0.969c0.3-0.441,0.451-0.949,0.451-1.534
		c0-0.716-0.213-1.309-0.633-1.771c-0.423-0.47-0.953-0.758-1.603-0.877c-0.471-0.092-1.426-0.136-2.862-0.136H128.514z"/>
	<path fill="#FFFFFF" d="M143.01,202.609v-19.556h3.98v16.23h9.897v3.325H143.01z"/>
	<path fill="#FFFFFF" d="M177.499,202.609h-4.329l-1.719-4.48h-7.88l-1.63,4.48h-4.216l7.674-19.717h4.208L177.499,202.609z
		 M170.172,194.807l-2.712-7.314l-2.663,7.314H170.172z"/>
	<path fill="#FFFFFF" d="M192.226,195.359l3.857,1.225c-0.589,2.153-1.573,3.747-2.95,4.793c-1.376,1.041-3.118,1.563-5.238,1.563
		c-2.618,0-4.77-0.89-6.45-2.68c-1.691-1.791-2.532-4.23-2.532-7.336c0-3.281,0.848-5.829,2.542-7.643
		c1.69-1.814,3.922-2.723,6.682-2.723c2.414,0,4.369,0.713,5.878,2.136c0.895,0.846,1.568,2.056,2.014,3.632l-3.936,0.943
		c-0.231-1.024-0.723-1.832-1.461-2.423c-0.739-0.591-1.639-0.887-2.692-0.887c-1.467,0-2.654,0.525-3.561,1.572
		c-0.913,1.052-1.366,2.749-1.366,5.096c0,2.498,0.448,4.269,1.346,5.327c0.895,1.059,2.064,1.589,3.495,1.589
		c1.056,0,1.967-0.34,2.729-1.014C191.344,197.86,191.893,196.805,192.226,195.359z"/>
	<path fill="#FFFFFF" d="M199.5,202.609v-19.717h14.612v3.333h-10.636v4.37h9.898v3.327h-9.898v5.362h11.016v3.325H199.5z"/>
	<path fill="#FFFFFF" d="M217.884,202.609v-19.717h3.977v7.758h7.801v-7.758h3.977v19.717h-3.977v-8.623h-7.801v8.623H217.884z"/>
	<path fill="#FFFFFF" d="M236.945,192.873c0-2.012,0.305-3.692,0.902-5.056c0.445-1.007,1.062-1.908,1.84-2.703
		c0.772-0.8,1.62-1.39,2.547-1.776c1.227-0.519,2.642-0.779,4.249-0.779c2.902,0,5.228,0.9,6.97,2.701
		c1.746,1.803,2.617,4.309,2.617,7.521c0,3.177-0.866,5.669-2.594,7.471c-1.734,1.795-4.047,2.689-6.941,2.689
		c-2.931,0-5.262-0.89-6.994-2.68C237.814,198.47,236.945,196.009,236.945,192.873z M241.05,192.738c0,2.23,0.518,3.921,1.55,5.073
		c1.025,1.152,2.333,1.731,3.925,1.731c1.587,0,2.885-0.574,3.907-1.717c1.012-1.144,1.523-2.857,1.523-5.143
		c0-2.261-0.493-3.946-1.484-5.059c-0.989-1.108-2.31-1.666-3.946-1.666c-1.646,0-2.965,0.561-3.966,1.687
		C241.552,188.771,241.05,190.466,241.05,192.738z"/>
	<path fill="#FFFFFF" d="M259.285,202.609v-19.556h3.977v16.23h9.896v3.325H259.285z"/>
	<path fill="#FFFFFF" d="M275.982,182.893h7.275c1.641,0,2.889,0.125,3.75,0.378c1.158,0.338,2.15,0.944,2.973,1.814
		c0.827,0.87,1.456,1.931,1.884,3.192c0.434,1.259,0.645,2.813,0.645,4.659c0,1.625-0.198,3.021-0.605,4.199
		c-0.49,1.434-1.194,2.596-2.112,3.48c-0.685,0.674-1.623,1.198-2.796,1.571c-0.874,0.275-2.05,0.423-3.521,0.423h-7.491V182.893z
		 M279.962,186.226v13.059h2.973c1.113,0,1.912-0.061,2.406-0.186c0.649-0.161,1.184-0.435,1.609-0.821
		c0.425-0.386,0.772-1.022,1.041-1.902c0.266-0.884,0.405-2.088,0.405-3.613c0-1.52-0.14-2.69-0.405-3.51
		c-0.269-0.815-0.643-1.451-1.129-1.909c-0.486-0.455-1.095-0.765-1.844-0.925c-0.552-0.127-1.646-0.192-3.267-0.192H279.962z"/>
	<path fill="#FFFFFF" d="M295.883,202.609v-19.717h14.616v3.333h-10.637v4.37h9.898v3.327h-9.898v5.362h11.015v3.325H295.883z"/>
	<path fill="#FFFFFF" d="M314.268,202.609v-19.717h8.372c2.11,0,3.64,0.178,4.597,0.532c0.954,0.355,1.716,0.984,2.289,1.89
		c0.577,0.905,0.861,1.94,0.861,3.107c0,1.479-0.43,2.698-1.304,3.665c-0.869,0.962-2.167,1.57-3.899,1.823
		c0.864,0.5,1.571,1.052,2.133,1.65c0.562,0.604,1.312,1.667,2.264,3.202l2.41,3.849h-4.764l-2.875-4.293
		c-1.024-1.532-1.722-2.495-2.096-2.895c-0.375-0.398-0.775-0.672-1.203-0.825c-0.418-0.146-1.086-0.221-1.999-0.221h-0.807v8.233
		H314.268z M318.247,191.23h2.944c1.912,0,3.101-0.077,3.579-0.243c0.471-0.162,0.843-0.438,1.113-0.833
		c0.268-0.392,0.4-0.885,0.4-1.475c0-0.666-0.172-1.2-0.528-1.608c-0.354-0.412-0.853-0.667-1.498-0.774
		c-0.324-0.044-1.29-0.07-2.905-0.07h-3.105V191.23z"/>
</g>
</svg>
