<?xml version="1.0" encoding="utf-8"?>
<!-- Generator: Adobe Illustrator 15.0.0, SVG Export Plug-In . SVG Version: 6.00 Build 0)  -->
<!DOCTYPE svg PUBLIC "-//W3C//DTD SVG 1.1//EN" "http://www.w3.org/Graphics/SVG/1.1/DTD/svg11.dtd">
<svg version="1.1" id="Layer_1" xmlns="http://www.w3.org/2000/svg" xmlns:xlink="http://www.w3.org/1999/xlink" x="0px" y="0px"
	 width="480px" height="359.318px" viewBox="0 0 480 359.318" enable-background="new 0 0 480 359.318" xml:space="preserve">
<rect x="-52.657" y="-14.841" fill="#CCCCCC" width="585.981" height="384.667"/>
<g>
	<path fill="#FFFFFF" d="M133.336,185.882v-13.747h2.774v13.747H133.336z"/>
	<path fill="#FFFFFF" d="M138.719,185.882v-13.747h4.153l2.497,9.379l2.465-9.379h4.162v13.747h-2.579V175.06l-2.727,10.822h-2.671
		l-2.723-10.822v10.822H138.719z"/>
	<path fill="#FFFFFF" d="M167.148,185.882h-3.019l-1.2-3.123h-5.495l-1.137,3.123h-2.94l5.352-13.747h2.934L167.148,185.882z
		 M162.038,180.443l-1.896-5.102l-1.857,5.102H162.038z"/>
	<path fill="#FFFFFF" d="M175.013,180.828v-2.317h5.985v5.475c-0.581,0.563-1.424,1.057-2.527,1.488
		c-1.103,0.429-2.22,0.64-3.352,0.64c-1.439,0-2.691-0.301-3.761-0.901c-1.07-0.603-1.874-1.467-2.411-2.591
		c-0.538-1.119-0.804-2.342-0.804-3.658c0-1.434,0.297-2.705,0.898-3.819c0.6-1.111,1.479-1.964,2.635-2.559
		c0.883-0.458,1.979-0.685,3.294-0.685c1.705,0,3.039,0.358,3.995,1.075c0.962,0.713,1.579,1.703,1.855,2.967l-2.758,0.515
		c-0.193-0.676-0.556-1.208-1.093-1.598c-0.533-0.393-1.202-0.588-2-0.588c-1.215,0-2.179,0.387-2.895,1.154
		c-0.714,0.771-1.071,1.91-1.071,3.423c0,1.631,0.361,2.854,1.086,3.669c0.724,0.816,1.677,1.227,2.851,1.227
		c0.58,0,1.164-0.116,1.75-0.346c0.585-0.227,1.085-0.502,1.503-0.83v-1.742H175.013z"/>
	<path fill="#FFFFFF" d="M183.556,185.882v-13.747h10.192v2.325h-7.417v3.047h6.902v2.317h-6.902v3.741h7.679v2.316H183.556z"/>
	<path fill="#FFFFFF" d="M201.7,185.882v-13.747h4.453c1.688,0,2.789,0.071,3.3,0.207c0.788,0.208,1.447,0.653,1.979,1.346
		c0.532,0.69,0.8,1.583,0.8,2.677c0,0.845-0.154,1.553-0.461,2.129c-0.308,0.575-0.696,1.026-1.169,1.354
		c-0.472,0.33-0.949,0.546-1.438,0.65c-0.663,0.134-1.622,0.2-2.879,0.2h-1.811v5.184H201.7z M204.475,174.46v3.901h1.519
		c1.094,0,1.826-0.072,2.194-0.214c0.37-0.144,0.661-0.37,0.869-0.676c0.209-0.307,0.315-0.663,0.315-1.069
		c0-0.5-0.149-0.913-0.442-1.237c-0.294-0.327-0.664-0.528-1.117-0.61c-0.328-0.063-0.995-0.094-1.996-0.094H204.475z"/>
	<path fill="#FFFFFF" d="M214.582,185.882v-13.634h2.777v11.317h6.901v2.316H214.582z"/>
	<path fill="#FFFFFF" d="M238.632,185.882h-3.02l-1.199-3.123h-5.494l-1.136,3.123h-2.941l5.352-13.747h2.935L238.632,185.882z
		 M233.524,180.443l-1.893-5.102l-1.856,5.102H233.524z"/>
	<path fill="#FFFFFF" d="M248.901,180.828l2.69,0.853c-0.411,1.502-1.098,2.616-2.059,3.345c-0.957,0.727-2.174,1.089-3.65,1.089
		c-1.826,0-3.327-0.621-4.5-1.868c-1.179-1.248-1.763-2.951-1.763-5.115c0-2.288,0.59-4.066,1.771-5.332
		c1.18-1.264,2.735-1.898,4.659-1.898c1.684,0,3.048,0.498,4.098,1.49c0.625,0.589,1.095,1.433,1.406,2.533l-2.746,0.657
		c-0.162-0.713-0.502-1.277-1.016-1.689c-0.517-0.413-1.146-0.62-1.881-0.62c-1.021,0-1.848,0.367-2.481,1.097
		c-0.636,0.734-0.953,1.917-0.953,3.554c0,1.74,0.313,2.975,0.939,3.713c0.624,0.738,1.438,1.109,2.438,1.109
		c0.737,0,1.371-0.236,1.901-0.706C248.287,182.57,248.67,181.836,248.901,180.828z"/>
	<path fill="#FFFFFF" d="M253.973,185.882v-13.747h10.192v2.325h-7.417v3.047h6.902v2.317h-6.902v3.741h7.679v2.316H253.973z"/>
	<path fill="#FFFFFF" d="M266.792,185.882v-13.747h2.774v5.41h5.438v-5.41h2.775v13.747h-2.775v-6.012h-5.438v6.012H266.792z"/>
	<path fill="#FFFFFF" d="M280.086,179.094c0-1.401,0.211-2.576,0.629-3.526c0.312-0.701,0.739-1.33,1.281-1.884
		c0.539-0.557,1.131-0.97,1.777-1.24c0.855-0.361,1.843-0.543,2.961-0.543c2.025,0,3.645,0.627,4.862,1.885
		c1.217,1.258,1.823,3.002,1.823,5.243c0,2.217-0.602,3.954-1.81,5.209c-1.209,1.251-2.819,1.876-4.839,1.876
		c-2.042,0-3.668-0.621-4.875-1.868C280.691,182.998,280.086,181.28,280.086,179.094z M282.947,179c0,1.556,0.358,2.735,1.08,3.54
		c0.716,0.8,1.628,1.206,2.736,1.206c1.107,0,2.014-0.401,2.725-1.199c0.707-0.795,1.064-1.99,1.064-3.583
		c0-1.578-0.345-2.752-1.038-3.529c-0.688-0.772-1.608-1.162-2.751-1.162c-1.146,0-2.066,0.392-2.766,1.177
		C283.296,176.234,282.947,177.417,282.947,179z"/>
	<path fill="#FFFFFF" d="M295.663,185.882v-13.634h2.774v11.317h6.9v2.316H295.663z"/>
	<path fill="#FFFFFF" d="M307.308,172.135h5.071c1.146,0,2.016,0.088,2.615,0.264c0.809,0.235,1.5,0.659,2.073,1.265
		c0.578,0.606,1.016,1.347,1.314,2.226c0.303,0.878,0.449,1.962,0.449,3.25c0,1.132-0.141,2.106-0.423,2.925
		c-0.343,1.002-0.834,1.812-1.472,2.43c-0.48,0.468-1.132,0.834-1.949,1.097c-0.611,0.192-1.432,0.291-2.458,0.291h-5.222V172.135z
		 M310.081,174.46v9.105h2.073c0.776,0,1.332-0.042,1.678-0.129c0.451-0.114,0.824-0.306,1.123-0.573
		c0.295-0.27,0.538-0.712,0.726-1.326c0.186-0.618,0.282-1.457,0.282-2.52c0-1.061-0.097-1.877-0.282-2.448
		c-0.188-0.569-0.448-1.012-0.787-1.331c-0.339-0.318-0.766-0.534-1.287-0.645c-0.385-0.088-1.146-0.134-2.276-0.134H310.081z"/>
	<path fill="#FFFFFF" d="M321.184,185.882v-13.747h10.193v2.325h-7.42v3.047h6.903v2.317h-6.903v3.741h7.683v2.316H321.184z"/>
	<path fill="#FFFFFF" d="M334.004,185.882v-13.747h5.838c1.472,0,2.538,0.125,3.204,0.372c0.666,0.247,1.198,0.685,1.598,1.316
		c0.4,0.631,0.6,1.353,0.6,2.167c0,1.032-0.3,1.882-0.909,2.556c-0.606,0.671-1.513,1.095-2.717,1.271
		c0.599,0.35,1.093,0.733,1.485,1.151c0.391,0.421,0.916,1.162,1.579,2.231l1.681,2.683h-3.322l-2.006-2.992
		c-0.712-1.069-1.2-1.74-1.462-2.018c-0.261-0.279-0.54-0.47-0.836-0.576c-0.294-0.102-0.759-0.153-1.396-0.153h-0.562v5.739
		H334.004z M336.777,177.949h2.054c1.333,0,2.162-0.054,2.496-0.168c0.328-0.113,0.589-0.306,0.775-0.582
		c0.188-0.273,0.281-0.617,0.281-1.03c0-0.464-0.123-0.835-0.369-1.12c-0.247-0.288-0.594-0.466-1.047-0.54
		c-0.224-0.031-0.898-0.049-2.025-0.049h-2.165V177.949z"/>
</g>
</svg>
