<svg width="174" height="40" viewBox="0 0 174 40" fill="none" xmlns="http://www.w3.org/2000/svg">
<g id="Pertamina_Logo" clip-path="url(#clip0_3725_2228)">
<g id="Logo">
<g id="Title">
<path id="path4216" d="M63.1216 16.855H68.5264C70.0318 16.855 71.2461 17.2219 72.1693 17.9557C73.0925 18.6827 73.7507 19.6415 73.7507 20.8323C73.7507 21.6146 73.7344 23.117 73.277 23.8231C72.8279 24.5224 72.1459 25.045 71.231 25.3912C70.3161 25.7373 69.3219 25.9173 68.6732 25.9312L66.3458 25.9727V30.4899H63.1216V16.855ZM66.2959 19.7633V23.2941L68.2691 23.2941C68.8596 23.294 69.3628 23.1175 69.7787 22.7644C70.2028 22.4114 70.4149 21.9925 70.4149 21.5079C70.4149 20.9541 70.1779 20.5249 69.7038 20.2202C69.2297 19.9156 68.7373 19.7631 67.864 19.7631L66.2959 19.7633Z" fill="#082313"/>
<path id="path4218" d="M75.6016 16.855H84.3629V19.555H78.8064V22.0321H84.1979V24.9653H78.8064V27.4541H84.3629V30.4899H75.6016V16.855Z" fill="#082313"/>
<path id="path4220" d="M87.374 16.855H92.9884C94.4584 16.855 95.3789 17.2168 96.2311 17.935C97.0877 18.6568 97.3827 19.7991 97.5183 20.853C97.6133 21.5911 97.5588 22.3024 97.1633 23.0571C96.7753 23.8117 95.6049 24.6342 94.5174 24.8869L98.8022 30.4899H94.9179L90.8998 25.0634L90.5416 25.0634V30.4899H87.374V16.855ZM90.564 19.5096V23.0308H91.7071C93.3562 23.0308 94.1807 22.2099 94.1807 20.9569C94.1807 19.5583 92.6768 19.5167 91.7519 19.5096H90.564Z" fill="#082313"/>
<path id="path4222" d="M98.9414 16.855H109.443V19.8075H105.863V30.4899H102.497V19.8075H98.9414V16.855Z" fill="#082313"/>
<path id="path4224" d="M113.392 16.855H116.748L121.373 30.4899H117.976L117.094 28.0317H112.944L111.901 30.4899H108.731L113.392 16.855ZM115.029 21.241L113.52 25.4604H116.317L115.029 21.241Z" fill="#082313"/>
<path id="path4226" d="M124.688 16.855H127.826L130.391 24.4247L133.183 16.855H136.297L138.098 30.4899H135.011L134.098 22.7611L131.012 30.4896H129.741L126.834 22.6199L125.5 30.4896L122.643 30.4899L124.688 16.855Z" fill="#082313"/>
<path id="path4228" d="M140.196 16.855H143.445V30.4899H140.196V16.855Z" fill="#082313"/>
<path id="path4230" d="M155.641 16.9297H158.604V30.4899H155.322L149.603 22.4134V30.4899H146.398V16.9297H149.459L155.641 25.3217V16.9297Z" fill="#082313"/>
<path id="path4162" d="M165.269 16.855H168.625L173.25 30.4899H169.853L168.971 28.0317H164.821L163.779 30.4899H160.608L165.269 16.855ZM166.906 21.241L165.398 25.4604H168.194L166.906 21.241Z" fill="#082313"/>
</g>
<g id="Icon">
<path id="path4265" d="M0.75 40.0016C0.75 40.0016 11.5787 22.8324 13.3432 19.9862C15.1075 17.1394 16.6275 16.8721 21.5019 16.8721H32.2455C31.6121 17.4018 30.5288 18.5078 29.7183 19.8076L18.7912 37.3328C17.6986 39.2911 15.3882 40.0016 12.6157 40.0016H0.75Z" fill="#006CB8"/>
<path id="path4267" d="M43.5265 16.8721C38.6521 16.8721 37.1236 17.1393 35.2667 19.9861C33.4095 22.8324 28.4209 30.5022 28.4209 30.5022H40.9141C43.0953 30.5022 45.2183 29.5475 46.1324 27.9693L53.5137 16.8721H43.5265Z" fill="#ACC42A"/>
<path id="path4308" d="M38.4081 0.00195312C43.2824 0.00195312 44.8109 0.26923 46.6679 3.11597C48.5251 5.96224 53.5137 13.6321 53.5137 13.6321H41.0205C38.8393 13.6321 36.7162 12.6774 35.8021 11.0992L28.4209 0.00195312H38.4081Z" fill="#ED1B2F"/>
</g>
</g>
</g>
<defs>
<clipPath id="clip0_3725_2228">
<rect width="172.5" height="40" fill="white" transform="translate(0.75 0.00146484)"/>
</clipPath>
</defs>
</svg>
